<?xml version="1.0" encoding="UTF-8"?>
<svg id="_レイヤー_1" data-name="レイヤー 1" xmlns="http://www.w3.org/2000/svg" viewBox="0 0 1024 1024">
  <defs>
    <style>
      .cls-1 {
        letter-spacing: 0em;
      }

      .cls-2 {
        fill: #39a011;
      }

      .cls-3 {
        stroke: #34841a;
      }

      .cls-3, .cls-4 {
        stroke-width: 20.42px;
      }

      .cls-3, .cls-4, .cls-5 {
        fill: none;
        stroke-linecap: round;
        stroke-linejoin: round;
      }

      .cls-6 {
        fill: #38a016;
      }

      .cls-7 {
        fill: #3b9e14;
      }

      .cls-8 {
        fill: #5a5a5a;
        font-family: K2D-Light, K2D;
        font-size: 82px;
        font-weight: 300;
      }

      .cls-4, .cls-5 {
        stroke: #3ba215;
      }

      .cls-9 {
        letter-spacing: -.02em;
      }

      .cls-10 {
        letter-spacing: -.02em;
      }

      .cls-11 {
        letter-spacing: -.02em;
      }

      .cls-5 {
        stroke-width: 14.58px;
      }

      .cls-12 {
        letter-spacing: -.02em;
      }

      .cls-13 {
        fill: #2a631c;
      }

      .cls-14 {
        fill: #1c6830;
      }

      .cls-15 {
        fill: #3ba215;
      }

      .cls-16 {
        fill: #3b9c16;
      }

      .cls-17 {
        fill: #399d13;
      }
    </style>
  </defs>
  <g transform="translate(0, 80)">
  <path class="cls-14" d="M510.17,167.59c4.11-.77,7.09,1.66,8.79,5.09v372.94c1.37,5.47,25.82,20.31,26.84,23.14.95,2.63-2.72,21.21-2.78,25.91-.6,52.35,18.07,90.93,61.54,119.84,3.88,2.58,25.87,12.75,26.37,15.27,1.87,9.36-24.3,7.71-30.08,6.94-4.81-.64-17.51-7.45-18.51-7.4-2.12.1-4.76,6.52-8.33,7.4-3.1.77-60.76.8-63.85,0-2.21-.57-3.98-3.22-5.09-5.09V172.68c1-1.72,3.07-4.71,5.09-5.09Z"/>
  <path class="cls-17" d="M492.59,459.1l1.39,78.2c-17.98,16.02-46.93,50.25-71.72,52.29-25.5,2.1-61.43-13.03-82.83-26.37-.37-1.81.34-2.15,1.39-3.24,5.47-5.68,44.4-24.31,54.6-30.54,34.18-20.88,67.4-43.41,97.17-70.33Z"/>
  <path class="cls-16" d="M530.53,459.1c45.8,42.19,101,71.43,154.08,103.18-20.9,14.12-55.42,28.96-80.97,27.3-25.91-1.69-55.32-34.45-73.57-51.36l.46-79.12Z"/>
  <path class="cls-2" d="M530.53,255.51c14.16,11.38,27.62,23.86,42.57,34.24,28.17,19.55,87.4,44.35,98.56,79.12,8.58,26.75-11.27-.85-18.97-6.02-11-7.38-27.56-12.91-39.79-20.36-10.36-6.31-80.95-61.59-82.83-68.02-.45-1.54-.27-18.37.46-18.97Z"/>
  <path class="cls-6" d="M491.66,255.51c3.5-.77,2.77,16.52,2.31,18.05-1.8,5.97-71.89,61.87-81.9,68.02-13.14,8.07-27.9,13.07-40.72,20.36-1.96,1.11-19.36,16-20.82,13.42,13.8-45.65,64.73-61.48,100.41-86.53,14.34-10.07,27.59-21.75,40.72-33.32Z"/>
  <path class="cls-7" d="M491.66,381.36c1.31-.08,2.54-.38,2.31,1.39.92,2.62.74,52.57,0,55.53-.57,2.28-19.37,18.87-22.67,21.75-4.03,3.51-31.54,25.28-34.24,24.99-1.66-.18-9.08-8.82-11.11-9.25-8.49-1.8-39.84,11.31-50.9,11.11l55.99,2.31c-12.07,9.73-25.29,18.16-38.4,26.37-9.2,5.76-70.71,42.78-75.88,43.49-6.43.89-36.16-14.32-38.4-19.9-2.87-7.11,16.19-22.83,21.75-28.23,7.02-6.81,57.36-51.7,62-52.75,5.19-1.17,11.71,1.54,16.66.93,13.11-1.63,61.47-34.94,74.03-44.42,5.89-4.45,36.31-33.16,38.87-33.32Z"/>
  <path class="cls-17" d="M530.53,381.36c26.91,22.3,54.29,46.95,85.14,63.85,5.4,2.96,23.92,13.3,28.69,13.88,6.55.8,13.26-2.77,20.36,0,3.36,1.31,39.73,34.56,45.35,39.79,4.86,4.52,34.41,31.76,35.63,34.7,3.15,7.62-25.04,22.98-31,24.52-4.22,1.09-5.96,1.08-10.18,0-10.02-2.57-60.09-34.06-72.18-41.64-13.12-8.22-26.35-16.61-38.4-26.37l62.47-2.31-55.53-12.96c-4.79-3.21-14.44,10.08-15.73,10.18-3.75.29-49.15-39.12-55.06-44.88l.46-58.76Z"/>
  <path class="cls-7" d="M491.66,294.38c1.31-.08,2.54-.38,2.31,1.39v64.78c-10.8,10.12-21.55,20.52-32.85,30.08-22.9,19.34-98.23,73.17-126.78,70.33-11.53-1.14-35.63-17.48-30.08-31,1.82-4.44,51.88-48.27,57.84-51.36,8.31-4.31,22.68-7.29,32.39-12.03,22.59-11.04,43.37-25.98,62.93-41.64,4.97-3.98,31.95-30.4,34.24-30.54Z"/>
  <path class="cls-7" d="M530.53,294.38c32.68,30,64.58,55.25,104.57,74.96,6.77,3.34,17.94,5.22,24.06,8.33,7.13,3.62,58.79,47.85,60.62,53.21,4.16,12.23-19.48,28.86-30.08,30.08-27.65,3.18-99.59-47.34-122.16-65.7-13-10.58-25.25-22.33-37.48-33.78l.46-67.09Z"/>
  <path class="cls-3" d="M480.04,703.38c-8.78,14.09-20.89,27.86-37.24,32.51"/>
  <path class="cls-13" d="M496.38,569.88c14.97,71.13-24.74,153.15-97.52,172.75-5.81,1.64-11.86-1.74-13.5-7.55-1.64-5.81,1.73-11.86,7.55-13.5,14.72-4.16,28.45-11.4,40.17-21.2,35.9-29.9,50.9-80.89,41.84-126.25-.18-1.79-.48-3.78-.28-5.48.16-2.58,13.5-11.75,16.11-14.85,3.16-.44,4.83,13.31,5.63,16.08h0Z"/>
  <path class="cls-15" d="M547.55,188c13.77,13.68,30.96,25.74,46.22,38.75,19.21,16.74,39.71,33.71,57.78,51.77,1.85,1.89,4.06,4.29,5.8,6.34,1.05,1.35,2.24,2.8,3.15,4.3,5.06,8.94,9.4,23.65-2.28,29.78,0,0-5.78,1.19-5.78,1.19-.14-.09-4.81.8-5.51.92-4.29.84-8.94,1.06-13.11-.57-6.46-2.51-12-6.23-17.65-9.86-31.3-21.06-60.64-44.37-87.96-70.41-2.91-3.15-3.79-3.21-3.88-5.6-.18-5.43-.74-21.02.63-27.89,25.37,21.9,50.24,45.87,77.71,65.72,8.69,6.47,17.51,12.86,26.32,18.68,4.09,2.64,8.54,5.6,12.76,7.42-.37-.12-.76-.14-1.08-.16-.05,0,.04,0,.06,0,4.58-.52,7.46-1.72,12.93-1.55,0,0-5.78,1.19-5.78,1.19-2.97,1.29-5.5,5.06-5.5,7.92,0,.28,0,.29,0,.44-.03-.78-1.6-5.07-2.03-5.37-1.57-2.11-3.66-4.26-5.5-6.18-12.98-12.99-26.86-24.87-40.83-37.03-8.92-7.75-21.56-18.71-30.9-25.91-10.62-8.43-21.7-17.12-32.02-27.33-2.58-2.41-5.28-4.94-7.85-7.39.98-3.74-1.78-21.73,1.13-25.63,1.68-2.07,4.23.87,8.75,4.15,4.46,3.57,9.88,8.29,14.42,12.3h0Z"/>
  <path class="cls-15" d="M491.95,205.55c-15.27,14.87-31.64,26.19-47.24,39.62-19.69,17.36-40.93,34.95-59.08,53.68-.12.14-1.55,1.74-1.65,1.88-.15.23-.34.49-.53.69-.1.12.06-.12.06-.13.02-.03.14-.25.14-.26-.58,1.32-1.22,3.73-1.3,4.95-.21-3.14-2.98-6.59-6.38-7.75,0,0-2.95-.67-2.95-.67,4.35.31,7.46.8,11.22-.52,13.63-6.22,26.15-15.64,38.28-24.9,25.16-19.75,50.71-43.55,75.46-64.4,1.03,2.86,1.06,21.46.57,28.6-.09,1.76-4.64,5.41-10.94,11.43-16.55,13.94-32.96,28.84-50.71,42.74-11.11,8.69-23.04,17.15-35.61,24.15-5.52,3.28-13.86,6.6-20.69,6.52-3.67.12-6.79-.13-9.73-.4-2.95-.23-5.93-1.86-7.84-3.87-2.59-2.62-3.89-6.46-3.99-10.03-.03-6.01,1.41-11.27,3.87-16.53.49-1.05,1.62-2.53,2.32-3.49,2.02-2.68,4.68-5.35,6.98-7.75,18.01-17.83,38.24-34.96,57.27-51.63,15.16-13.09,32.32-25.1,46.17-38.64,7.89-7.72,15.79-17.13,23.64-24,1.24,2.77,2.66,21.32,2.72,28.48.04,1.76-4.22,5.74-10.05,12.22h0Z"/>
  <polyline class="cls-5" points="420.76 212.49 510.52 140.81 603.32 212.44"/>
  <polyline class="cls-4" points="443.84 225.15 398.67 209.66 512.04 97.83 625.72 210.23 581.09 224.87"/>
</svg>