<?xml version="1.0" encoding="UTF-8"?>
<svg id="_レイヤー_1" xmlns="http://www.w3.org/2000/svg" version="1.1" viewBox="0 0 1024 1024">
  <!-- Generator: Adobe Illustrator 30.0.0, SVG Export Plug-In . SVG Version: 2.1.1 Build 123)  -->
  <defs>
    <style>
      .st0 {
        fill: #39a011;
      }

      .st1 {
        stroke: #34841a;
      }

      .st1, .st2 {
        stroke-width: 20.4px;
      }

      .st1, .st2, .st3 {
        fill: none;
        stroke-linecap: round;
        stroke-linejoin: round;
      }

      .st4 {
        fill: #38a016;
      }

      .st5 {
        fill: #3b9e14;
      }

      .st2, .st3 {
        stroke: #3ba215;
      }

      .st3 {
        stroke-width: 14.6px;
      }

      .st6 {
        fill: #2a631c;
      }

      .st7 {
        fill: #1c6830;
      }

      .st8 {
        fill: #3ba215;
      }

      .st9 {
        fill: #3b9c16;
      }

      .st10 {
        fill: #399d13;
      }
    </style>
  </defs>
  <path class="st7" d="M509.6,188.2c5.3-1,9.1,2.1,11.3,6.5v477.7c1.8,7,33.1,26,34.4,29.6,1.2,3.4-3.5,27.2-3.6,33.2-.8,67.1,23.1,116.5,78.8,153.5,5,3.3,33.1,16.3,33.8,19.6,2.4,12-31.1,9.9-38.5,8.9-6.2-.8-22.4-9.5-23.7-9.5-2.7.1-6.1,8.4-10.7,9.5-4,1-77.8,1-81.8,0-2.8-.7-5.1-4.1-6.5-6.5V194.7c1.3-2.2,3.9-6,6.5-6.5h0Z"/>
  <path class="st10" d="M487.1,561.5l1.8,100.2c-23,20.5-60.1,64.4-91.9,67-32.7,2.7-78.7-16.7-106.1-33.8-.5-2.3.4-2.8,1.8-4.1,7-7.3,56.9-31.1,69.9-39.1,43.8-26.7,86.3-55.6,124.5-90.1h0Z"/>
  <path class="st9" d="M535.7,561.5c58.7,54,129.4,91.5,197.3,132.2-26.8,18.1-71,37.1-103.7,35-33.2-2.2-70.9-44.1-94.2-65.8l.6-101.3h0Z"/>
  <path class="st0" d="M535.7,300.8c18.1,14.6,35.4,30.6,54.5,43.9,36.1,25,111.9,56.8,126.2,101.3,11,34.3-14.4-1.1-24.3-7.7-14.1-9.5-35.3-16.5-51-26.1-13.3-8.1-103.7-78.9-106.1-87.1-.6-2-.3-23.5.6-24.3h0Z"/>
  <path class="st4" d="M485.9,300.8c4.5-1,3.5,21.2,3,23.1-2.3,7.6-92.1,79.2-104.9,87.1-16.8,10.3-35.7,16.7-52.2,26.1-2.5,1.4-24.8,20.5-26.7,17.2,17.7-58.5,82.9-78.7,128.6-110.8,18.4-12.9,35.3-27.9,52.2-42.7h0Z"/>
  <path class="st5" d="M485.9,462c1.7-.1,3.3-.5,3,1.8,1.2,3.4.9,67.3,0,71.1-.7,2.9-24.8,24.2-29,27.9-5.2,4.5-40.4,32.4-43.9,32-2.1-.2-11.6-11.3-14.2-11.8-10.9-2.3-51,14.5-65.2,14.2l71.7,3c-15.5,12.5-32.4,23.3-49.2,33.8-11.8,7.4-90.6,54.8-97.2,55.7-8.2,1.1-46.3-18.3-49.2-25.5-3.7-9.1,20.7-29.2,27.9-36.2,9-8.7,73.5-66.2,79.4-67.6,6.6-1.5,15,2,21.3,1.2,16.8-2.1,78.7-44.8,94.8-56.9,7.5-5.7,46.5-42.5,49.8-42.7h0Z"/>
  <path class="st10" d="M535.7,462c34.5,28.6,69.5,60.1,109,81.8,6.9,3.8,30.6,17,36.7,17.8,8.4,1,17-3.5,26.1,0,4.3,1.7,50.9,44.3,58.1,51,6.2,5.8,44.1,40.7,45.6,44.4,4,9.8-32.1,29.4-39.7,31.4-5.4,1.4-7.6,1.4-13,0-12.8-3.3-77-43.6-92.4-53.3-16.8-10.5-33.7-21.3-49.2-33.8l80-3-71.1-16.6c-6.1-4.1-18.5,12.9-20.1,13-4.8.4-63-50.1-70.5-57.5l.6-75.3h0Z"/>
  <path class="st5" d="M485.9,350.5c1.7-.1,3.3-.5,3,1.8v83c-13.8,13-27.6,26.3-42.1,38.5-29.3,24.8-125.8,93.7-162.4,90.1-14.8-1.5-45.6-22.4-38.5-39.7,2.3-5.7,66.4-61.8,74.1-65.8,10.6-5.5,29-9.3,41.5-15.4,28.9-14.1,55.5-33.3,80.6-53.3,6.4-5.1,40.9-38.9,43.9-39.1h0Z"/>
  <path class="st5" d="M535.7,350.5c41.9,38.4,82.7,70.8,133.9,96,8.7,4.3,23,6.7,30.8,10.7,9.1,4.6,75.3,61.3,77.6,68.2,5.3,15.7-25,37-38.5,38.5-35.4,4.1-127.6-60.6-156.5-84.1-16.7-13.6-32.3-28.6-48-43.3l.6-85.9h0Z"/>
  <path class="st1" d="M471.1,874.4c-11.2,18-26.8,35.7-47.7,41.6"/>
  <path class="st6" d="M492,703.4c19.2,91.1-31.7,196.2-124.9,221.3-7.4,2.1-15.2-2.2-17.3-9.7s2.2-15.2,9.7-17.3c18.9-5.3,36.4-14.6,51.4-27.2,46-38.3,65.2-103.6,53.6-161.7-.2-2.3-.6-4.8-.4-7,.2-3.3,17.3-15,20.6-19,4-.6,6.2,17,7.2,20.6h0Z"/>
  <path class="st8" d="M557.5,214.3c17.6,17.5,39.7,33,59.2,49.6,24.6,21.4,50.9,43.2,74,66.3,2.4,2.4,5.2,5.5,7.4,8.1,1.3,1.7,2.9,3.6,4,5.5,6.5,11.5,12,30.3-2.9,38.1l-7.4,1.5c-.2-.1-6.2,1-7.1,1.2-5.5,1.1-11.5,1.4-16.8-.7-8.3-3.2-15.4-8-22.6-12.6-40.1-27-77.7-56.8-112.7-90.2-3.7-4-4.9-4.1-5-7.2-.2-7-.9-26.9.8-35.7,32.5,28,64.3,58.8,99.5,84.2,11.1,8.3,22.4,16.5,33.7,23.9,5.2,3.4,10.9,7.2,16.3,9.5-.5-.2-1-.2-1.4-.2,0,0,0,0,0,0,5.9-.7,9.6-2.2,16.6-2l-7.4,1.5c-3.8,1.7-7,6.5-7,10.1v.6c0-1-2-6.5-2.6-6.9-2-2.7-4.7-5.5-7-7.9-16.6-16.6-34.4-31.9-52.3-47.4-11.4-9.9-27.6-24-39.6-33.2-13.6-10.8-27.8-21.9-41-35-3.3-3.1-6.8-6.3-10.1-9.5,1.3-4.8-2.3-27.8,1.4-32.8,2.2-2.7,5.4,1.1,11.2,5.3,5.7,4.6,12.7,10.6,18.5,15.8h0Z"/>
  <path class="st8" d="M486.3,236.8c-19.6,19-40.5,33.5-60.5,50.7-25.2,22.2-52.4,44.8-75.7,68.8-.2.2-2,2.2-2.1,2.4-.2.3-.4.6-.7.9-.1.2,0-.2,0-.2,0,0,.2-.3.2-.3-.7,1.7-1.6,4.8-1.7,6.3-.3-4-3.8-8.4-8.2-9.9l-3.8-.9c5.6.4,9.6,1,14.4-.7,17.5-8,33.5-20,49-31.9,32.2-25.3,64.9-55.8,96.6-82.5,1.3,3.7,1.4,27.5.7,36.6-.1,2.3-5.9,6.9-14,14.6-21.2,17.9-42.2,36.9-64.9,54.7-14.2,11.1-29.5,22-45.6,30.9-7.1,4.2-17.8,8.5-26.5,8.4-4.7.2-8.7-.2-12.5-.5-3.8-.3-7.6-2.4-10-5-3.3-3.4-5-8.3-5.1-12.8,0-7.7,1.8-14.4,5-21.2.6-1.3,2.1-3.2,3-4.5,2.6-3.4,6-6.9,8.9-9.9,23.1-22.8,49-44.8,73.4-66.1,19.4-16.8,41.4-32.1,59.1-49.5,10.1-9.9,20.2-21.9,30.3-30.7,1.6,3.5,3.4,27.3,3.5,36.5,0,2.3-5.4,7.4-12.9,15.7h0Z"/>
  <polyline class="st3" points="395.1 245.7 510.1 153.9 629 245.6"/>
  <polyline class="st2" points="424.7 261.9 366.8 242 512 98.8 657.6 242.8 600.5 261.5"/>
</svg>